# xmcd
#
# Track frame offsets: 
#        150
#        10695
#        32251
#        48799
#        68611
#        84029
#        101106
#        120807
#        137443
#        163591
#
# Disc length: 2544 seconds
#
# Revision: 0
# Processed by: cddbd v1.5.2PL0 Copyright (c) Steve Scherf et al.
# Submitted via: ExactAudioCopy v0.99pb5
#
DISCID=5f09ee0a
DTITLE=Cary Ann Hearst and Michael Trent - Shovels and Rope
DYEAR=2008
DGENRE=Country
TTITLE0=Gasoline
TTITLE1=Boxcar
TTITLE2=Magdelina
TTITLE3=Can't Hardly Stand It
TTITLE4=1200 Miles
TTITLE5=Hollowpoint
TTITLE6=Build Around Your Heart a Wall
TTITLE7=Mother's Scorn
TTITLE8=Swing Low
TTITLE9=Mexico
EXTD=
EXTT0=
EXTT1=
EXTT2=
EXTT3=
EXTT4=
EXTT5=
EXTT6=
EXTT7=
EXTT8=
EXTT9=
PLAYORDER=
